<svg xmlns="http://www.w3.org/2000/svg" xmlns:xlink="http://www.w3.org/1999/xlink" viewBox="0 0 1793 965.46"><defs><style>.a{fill:url(#a);}.b{fill:url(#b);}.c{fill:url(#c);}.d{fill:url(#d);}.e{fill:url(#e);}</style><linearGradient id="a" x1="64" y1="536.76" x2="1857" y2="536.76" gradientUnits="userSpaceOnUse"><stop offset="0" stop-color="#cf9e25"/><stop offset="0.05" stop-color="#d7a71f"/><stop offset="0.08" stop-color="#edce63"/><stop offset="0.15" stop-color="#fef8c7"/><stop offset="0.81" stop-color="#fdf7c5"/><stop offset="0.85" stop-color="#f4e4a2"/><stop offset="0.88" stop-color="#eed688"/><stop offset="0.95" stop-color="#ebbb10"/><stop offset="1" stop-color="#c3922e"/></linearGradient><linearGradient id="b" x1="124.16" y1="53.36" x2="208.83" y2="188.32" gradientUnits="userSpaceOnUse"><stop offset="0" stop-color="#cf9e25"/><stop offset="0.08" stop-color="#d7a71f"/><stop offset="0.28" stop-color="#edce63"/><stop offset="0.44" stop-color="#fef8c7"/><stop offset="0.47" stop-color="#fcf1b3"/><stop offset="0.54" stop-color="#f6e07f"/><stop offset="0.63" stop-color="#eec42c"/><stop offset="0.66" stop-color="#ebbb10"/><stop offset="0.76" stop-color="#c3922e"/></linearGradient><linearGradient id="c" x1="124.16" y1="53.36" x2="208.83" y2="188.32" gradientTransform="matrix(1, 0, 0, -1, 0, 1069.66)" xlink:href="#b"/><linearGradient id="d" x1="85.19" y1="735.53" x2="169.86" y2="870.49" gradientTransform="translate(1881.61 1756) rotate(180)" xlink:href="#b"/><linearGradient id="e" x1="1532.19" y1="53.53" x2="1616.86" y2="188.49" gradientTransform="matrix(-1, 0, 0, 1, 3328.61, 0)" xlink:href="#b"/></defs><path class="a" d="M1688,54v9h160V213h9V54ZM64,213h9V63H233V54H64Zm9,653H64v153.49H233v-10H73Zm1775,143.52H1688v10h169V866h-9Z" transform="translate(-64 -54.03)"/><path class="b" d="M94,81.66V196L261.57,81.66ZM104.84,92H230.52L104.84,177.76Z" transform="translate(-64 -54.03)"/><path class="c" d="M261.57,988,94,873.66V988ZM104.84,891.89l125.68,85.76H104.84Z" transform="translate(-64 -54.03)"/><path class="d" d="M1659,992.17h167.57V877.83Zm156.73-10.35H1690.07l125.68-85.76Z" transform="translate(-64 -54.03)"/><path class="e" d="M1659,81.83l167.57,114.34V81.83Zm156.73,96.11L1690.07,92.18h125.68Z" transform="translate(-64 -54.03)"/></svg>