<svg xmlns="http://www.w3.org/2000/svg" viewBox="0 0 1335.81 187.22"><defs><style>.a{fill:#fff;}</style></defs><path class="a" d="M571.92,64.82q-13.11-8.08-31.36-8.08-18.49,0-32.77,8.31A59.1,59.1,0,0,0,485.44,88q-8.07,14.63-8.07,33.81,0,19,8.54,33.59a60.45,60.45,0,0,0,13.24,15.82l24-9.13c-.94-.44-1.86-.92-2.76-1.43A42.54,42.54,0,0,1,499.09,130h89a10.71,10.71,0,0,0,7.73-2.92,9.83,9.83,0,0,0,3-7.37q0-18.49-6.9-32.65A52.69,52.69,0,0,0,571.92,64.82Zm-72.57,46.45a48.37,48.37,0,0,1,4-12.52,37.61,37.61,0,0,1,14.39-16q9.48-5.85,22.82-5.85,11.7,0,19.89,5.38a35.62,35.62,0,0,1,12.64,14.63,47.19,47.19,0,0,1,4.17,14.39ZM312.85,65.05q-14.52-8.31-33.23-8.31-19,0-33.47,8.31A60.29,60.29,0,0,0,223.33,88Q215,102.62,215,121.8q0,19,8.3,33.59a60.26,60.26,0,0,0,22.82,22.93q14.5,8.31,33.47,8.31t33.46-8.31a59.33,59.33,0,0,0,22.7-22.93Q344,140.76,344,121.8q0-19.18-8.31-33.81A60.29,60.29,0,0,0,312.85,65.05Zm2.92,79.45A39.2,39.2,0,0,1,301.15,160a44.05,44.05,0,0,1-43.06,0,40.08,40.08,0,0,1-14.75-15.45A46.48,46.48,0,0,1,238,121.8,47.2,47.2,0,0,1,243.34,99a40,40,0,0,1,14.75-15.56,44.12,44.12,0,0,1,43.06,0A39.16,39.16,0,0,1,315.77,99,48,48,0,0,1,321,121.8,47.22,47.22,0,0,1,315.77,144.5ZM160.27,62.36a47,47,0,0,0-23.64-5.85,54.9,54.9,0,0,0-27,6.55,47.11,47.11,0,0,0-14,11.75A38.73,38.73,0,0,0,82.33,62.36,47,47,0,0,0,58.7,56.51a46.35,46.35,0,0,0-24.57,6.55,44.87,44.87,0,0,0-8.21,6.42,11.64,11.64,0,0,0-3.26-8.29A11.73,11.73,0,0,0,14,57.91a11.8,11.8,0,0,0-8.54,3.28,11.47,11.47,0,0,0-3.4,8.66V174A11.62,11.62,0,0,0,14,185.93a11.47,11.47,0,0,0,8.66-3.4A11.81,11.81,0,0,0,25.93,174V108q0-13.11,8-21.54A26.51,26.51,0,0,1,54,78Q65.72,78,73,85.18t7.26,21.88V174a11.61,11.61,0,0,0,11.93,11.94,11.46,11.46,0,0,0,8.66-3.4A11.78,11.78,0,0,0,104.1,174V108q0-13.11,7.84-21.54T132,78q11.7,0,19,7.14t7.26,21.88V174a11.61,11.61,0,0,0,11.94,11.94,11.45,11.45,0,0,0,8.65-3.4A11.78,11.78,0,0,0,182,174V107.06q0-16.15-5.73-27.5A40,40,0,0,0,160.27,62.36Zm484,22q15.07,12.94,40.37,16.45l37.13-14.09a93.15,93.15,0,0,0-25.31-5.87q-18.25-1.87-28-6.56T655.11,63.18a27,27,0,0,1-3.63-13.46q0-13.8,11.7-20.48t29-6.43a49.21,49.21,0,0,1,17.09,2.69,40.7,40.7,0,0,1,12.63,7.37,41.84,41.84,0,0,1,9.13,11.47,13.2,13.2,0,0,0,7.73,6.08,10.89,10.89,0,0,0,9.59-1.17,9.6,9.6,0,0,0,4.56-7.13c.39-3-.5-6.28-2.69-9.72a71.82,71.82,0,0,0-13.81-16.61,58.92,58.92,0,0,0-18.6-11q-10.65-4-24.93-4a92.94,92.94,0,0,0-33.11,5.62Q644.92,12,636.27,22.81T627.61,49Q627.61,70.08,644.23,84.36ZM874.74,6a14.86,14.86,0,0,0-10.88,4.56,14.87,14.87,0,0,0-4.57,10.88,14.89,14.89,0,0,0,4.57,10.89c.12.12.24.22.37.33l25.89-9.83c0-.45.07-.91.07-1.39a14.87,14.87,0,0,0-4.57-10.88A14.86,14.86,0,0,0,874.74,6ZM809,14.62a11.44,11.44,0,0,0-3.27-8.43,12.5,12.5,0,0,0-16.86,0,11.44,11.44,0,0,0-3.27,8.43V62.48L809,53.6Zm17.55,147.67h-5.85q-5.14,0-8.42-5.62T809,142.4V66l-23.4,8.89V142.4A53.26,53.26,0,0,0,790,164.75a37.37,37.37,0,0,0,12.41,15.33,30.88,30.88,0,0,0,18.25,5.61h.47q7,0,11.47-3.27a10.06,10.06,0,0,0,4.44-8.43,12.16,12.16,0,0,0-2.92-8.42A9.71,9.71,0,0,0,826.53,162.29Zm357.12-97.47q-13.11-8.08-31.36-8.08-18.49,0-32.76,8.31A59,59,0,0,0,1097.18,88q-8.09,14.63-8.08,33.81,0,19,8.55,33.59a60.73,60.73,0,0,0,23.63,22.93q15.1,8.31,34.52,8.31a70.9,70.9,0,0,0,22.59-4,64.64,64.64,0,0,0,19.77-10.3q4-3,3.75-7.25c-.16-2.81-1.57-5.39-4.22-7.72a10.21,10.21,0,0,0-7.14-2.46,13.24,13.24,0,0,0-7.6,2.69,46.08,46.08,0,0,1-12.29,6.2,44.23,44.23,0,0,1-14.86,2.69,47,47,0,0,1-23.63-5.85A42.54,42.54,0,0,1,1110.83,130h89a10.68,10.68,0,0,0,7.72-2.92,9.79,9.79,0,0,0,3-7.37q0-18.49-6.9-32.65A52.56,52.56,0,0,0,1183.65,64.82Zm-72.56,46.45a48.36,48.36,0,0,1,4-12.52,37.68,37.68,0,0,1,14.39-16q9.48-5.85,22.82-5.85,11.7,0,19.89,5.38a35.55,35.55,0,0,1,12.64,14.63,47.2,47.2,0,0,1,4.18,14.39ZM1041.6,2.92a11.81,11.81,0,0,0-8.54,3.27,11.47,11.47,0,0,0-3.4,8.66V78a57.62,57.62,0,0,0-45.16-21.3,56.38,56.38,0,0,0-30.66,8.54,60.86,60.86,0,0,0-21.42,23.17q-7.83,14.64-7.84,33.12a65,65,0,0,0,8.55,33.23,63.13,63.13,0,0,0,23.17,23.29A64.51,64.51,0,0,0,1045,154.8a65,65,0,0,0,8.54-33.23V14.85a11.73,11.73,0,0,0-3.27-8.66A11.73,11.73,0,0,0,1041.6,2.92ZM1025.22,144a40.54,40.54,0,0,1-14.75,15.79,42.15,42.15,0,0,1-42.47,0A41,41,0,0,1,953,144a46,46,0,0,1-5.5-22.47A45.18,45.18,0,0,1,953,99.1a41.53,41.53,0,0,1,15-15.56,42.21,42.21,0,0,1,42.47,0,41,41,0,0,1,14.75,15.56,46.09,46.09,0,0,1,5.38,22.47A47,47,0,0,1,1025.22,144Zm308.21-12.29q-4.46-7.14-14.63-12.52t-27.73-8.89q-12.64-2.58-19.19-5.27T1263.1,99a13.54,13.54,0,0,1-2.22-7.6q0-6.78,7.13-10.3t17.44-3.51a52.8,52.8,0,0,1,15.68,2.11,31.91,31.91,0,0,1,12.64,7.72,16.67,16.67,0,0,0,8.66,4.21,11.43,11.43,0,0,0,8.89-1.64,9.09,9.09,0,0,0,4-6.9,10.84,10.84,0,0,0-3-7.84,46.64,46.64,0,0,0-19-13.57q-11.94-4.92-27.38-4.92A68.85,68.85,0,0,0,1263,60.6a42.65,42.65,0,0,0-18,11.71q-7,7.83-7,19.77,0,13.58,10.65,22.94t34.29,14q18.24,3.27,25.15,8.42t6.67,12.17q-.23,7-7.37,11.47t-20.71,4.45a47.9,47.9,0,0,1-19.54-3.87q-8.77-3.85-12.76-8.3a12.64,12.64,0,0,0-7.84-4.1q-4.56-.59-9.24,3.16a11.19,11.19,0,0,0-4.56,7.84,10.18,10.18,0,0,0,2.92,8.54q7.73,7.72,21.65,12.76a88.63,88.63,0,0,0,30.31,5q16.61,0,27.73-5.15t16.85-13.81a34.39,34.39,0,0,0,5.73-19.42A30.59,30.59,0,0,0,1333.43,131.75ZM463.21,60.84q-6.9-4.56-20.95-4.57a51.77,51.77,0,0,0-25.74,6.56A51,51,0,0,0,403,73.75V69.38c0-3.9-1-6.82-2.93-8.78s-4.88-2.92-8.77-2.92-6.64,1-8.66,3-3,4.92-3,8.66V174q0,5.85,3,8.78t8.66,2.92c3.89,0,6.82-1,8.77-3S403,177.74,403,174V105.65q0-10.75,6.9-17.78t18.84-9.6q11.94-2.56,26.91.47a13.88,13.88,0,0,0,5.62.24,9.32,9.32,0,0,0,4.56-2.23,9,9,0,0,0,2.7-5Q470.12,65.41,463.21,60.84ZM586,157.38a10.21,10.21,0,0,0-7.14-2.46,13.27,13.27,0,0,0-7.61,2.69,46,46,0,0,1-12.28,6.2,44.5,44.5,0,0,1-14.72,2.69L511,179.1q14.57,7.53,33.05,7.53a70.84,70.84,0,0,0,22.58-4,64.58,64.58,0,0,0,19.78-10.3c2.65-2,3.89-4.44,3.74-7.25S588.61,159.71,586,157.38Zm288.78-99.7A11.78,11.78,0,0,0,866.2,61a11.45,11.45,0,0,0-3.4,8.65V173.76a12.17,12.17,0,0,0,20.6,8.54,11.81,11.81,0,0,0,3.27-8.54V69.61a11.26,11.26,0,0,0-11.93-11.93ZM739.83,97.81A55.83,55.83,0,0,0,735.14,94l-28.5,10.82q9.63,3.16,15.17,8.77,9.71,9.83,9.71,22.23a24.1,24.1,0,0,1-5.85,16.5,37,37,0,0,1-15.33,10.18A59.19,59.19,0,0,1,689.63,166a60.2,60.2,0,0,1-19.19-3,52.93,52.93,0,0,1-15.56-8,30.22,30.22,0,0,1-9.25-10.77,14.32,14.32,0,0,0-6.2-6.67,11.68,11.68,0,0,0-8.31-1.29q-5.85,1.17-8.31,5.39a9.27,9.27,0,0,0-.11,9.12,51.54,51.54,0,0,0,14.74,19.43,74.09,74.09,0,0,0,23.64,13.1A87,87,0,0,0,689.63,188a91.22,91.22,0,0,0,24.45-3.27,65.74,65.74,0,0,0,21.07-9.95,50.72,50.72,0,0,0,14.74-16.5q5.49-9.83,5.5-23.17Q755.39,112,739.83,97.81Z" transform="translate(-2.06 -0.81)"/></svg>