<?xml version="1.0" encoding="UTF-8" standalone="no"?> <svg xmlns="http://www.w3.org/2000/svg" width="36" height="48" viewBox="0 0 36 48">
  <defs>
    <style>
      .a {
        fill: #d3d4ed;
      }
    </style>
  </defs>
  <title>5 lock_2</title>
  <path class="a" d="M31,21V13A13,13,0,0,0,17.37,0,13.25,13.25,0,0,0,5,13.37v.13a2.5,2.5,0,0,0,5,0v-.22A8.18,8.18,0,0,1,17.45,5,8,8,0,0,1,26,13v8H5a5,5,0,0,0-5,5V43a5,5,0,0,0,5,5H31a5,5,0,0,0,5-5V26A5,5,0,0,0,31,21ZM18,38.5a4,4,0,1,1,4-4A4,4,0,0,1,18,38.5Z"/>
</svg>
